<svg xmlns="http://www.w3.org/2000/svg" viewBox="0 0 588.97 400.21"><defs><style>.cls-1{fill:#fff;}</style></defs><title>Asset 1ccicon</title><g id="Layer_2" data-name="Layer 2"><g id="Layer_1-2" data-name="Layer 1"><g id="Layer_2-2" data-name="Layer 2"><g id="Layer_1-2-2" data-name="Layer 1-2"><g id="Layer_2-2-2" data-name="Layer 2-2"><g id="Layer_1-2-2-2" data-name="Layer 1-2-2"><g id="Layer_2-2-2-2" data-name="Layer 2-2-2"><g id="Capa_1" data-name="Capa 1"><path class="cls-1" d="M510.11,173.32a133.06,133.06,0,0,0,4.5-35A138.56,138.56,0,0,0,376,0C287.76,0,276,67.28,276,67.28a118.8,118.8,0,0,0-102.5-37.77A122,122,0,0,0,76,148.31a94.79,94.79,0,0,0,3,26.76,115.55,115.55,0,0,0,39.77,225.1h356.4a115.55,115.55,0,0,0,35-225.1ZM235,331.14a36.52,36.52,0,0,1-35-38v-.1a36.52,36.52,0,0,1,35-38h0a36,36,0,0,1,34.8,37.16v.86a36.27,36.27,0,0,1-34.45,38h-.82Zm125,0a36.52,36.52,0,0,1-34.76-38,35,35,0,1,1,69.78,0,36.27,36.27,0,0,1-34.45,38H360Z"/></g></g></g></g></g></g></g></g></svg>