<svg xmlns="http://www.w3.org/2000/svg" viewBox="0 0 1879.76 400.21"><defs><style>.cls-1{fill:#fff;}.cls-2{isolation:isolate;}</style></defs><title>Asset 1cloudcordlogofix</title><g id="Layer_2" data-name="Layer 2"><g id="Layer_1-2" data-name="Layer 1"><g id="Layer_2-2" data-name="Layer 2"><g id="Layer_1-2-2" data-name="Layer 1-2"><g id="Layer_2-2-2" data-name="Layer 2-2"><g id="Capa_1" data-name="Capa 1"><path class="cls-1" d="M510.15,173.32a133.06,133.06,0,0,0,4.5-35A138.56,138.56,0,0,0,376.09,0C287.8,0,276,67.28,276,67.28A118.8,118.8,0,0,0,173.5,29.51,122.05,122.05,0,0,0,76,148.31a94.79,94.79,0,0,0,3,26.76,115.55,115.55,0,0,0,39.77,225.1h356.4a115.55,115.55,0,0,0,35-225.1ZM235,331.14a36.52,36.52,0,0,1-35-38v-.08a36.52,36.52,0,0,1,35-38h0a36,36,0,0,1,34.8,37.16v.86a36.27,36.27,0,0,1-34.45,38h-.82Zm125,0a36.52,36.52,0,0,1-34.76-38,35,35,0,1,1,69.78,0,36.27,36.27,0,0,1-34.45,38h-.57Z"/></g></g><g class="cls-2"><path class="cls-1" d="M823.81,265.95a8.34,8.34,0,0,1,2.95.55,8,8,0,0,1,2.82,1.9L846,285.7A68.25,68.25,0,0,1,819,307q-16.26,7.18-38.47,7.18-20.37,0-36.51-6.93a79,79,0,0,1-27.37-19.14,84.28,84.28,0,0,1-17.24-29,106.92,106.92,0,0,1-6-36.38A95.91,95.91,0,0,1,700.24,186a85.71,85.71,0,0,1,19.21-28.9A86.61,86.61,0,0,1,749,138.2a102.89,102.89,0,0,1,37.92-6.75,96.66,96.66,0,0,1,19,1.78,92.72,92.72,0,0,1,16.63,4.91,78.38,78.38,0,0,1,14.24,7.49,68.81,68.81,0,0,1,11.54,9.63l-14,18.78a17.76,17.76,0,0,1-3.19,3.13,8.3,8.3,0,0,1-5.15,1.41,9.19,9.19,0,0,1-4.17-1,45.88,45.88,0,0,1-4.17-2.39l-4.85-3.07a37.34,37.34,0,0,0-6.26-3.07,52.07,52.07,0,0,0-8.47-2.39,57.88,57.88,0,0,0-11.35-1,51.91,51.91,0,0,0-20.62,4,45.2,45.2,0,0,0-16,11.41,52.91,52.91,0,0,0-10.43,18,70.5,70.5,0,0,0-3.74,23.68,73.58,73.58,0,0,0,3.74,24.42,53.6,53.6,0,0,0,10.19,18,43.19,43.19,0,0,0,15,11.11,44.94,44.94,0,0,0,18.41,3.8,88.14,88.14,0,0,0,10.31-.55,42.47,42.47,0,0,0,8.65-1.9,40,40,0,0,0,7.61-3.5,50.64,50.64,0,0,0,7.3-5.34,14.59,14.59,0,0,1,3.19-2A8.36,8.36,0,0,1,823.81,265.95Z"/><path class="cls-1" d="M904.19,128.51v183.7h-38V128.51Z"/><path class="cls-1" d="M991.56,183a73.54,73.54,0,0,1,26.38,4.54,57.9,57.9,0,0,1,20.43,13,58.63,58.63,0,0,1,13.25,20.55,74.19,74.19,0,0,1,4.72,27.18,75.52,75.52,0,0,1-4.72,27.43,59,59,0,0,1-13.25,20.74,58.14,58.14,0,0,1-20.43,13.13,72.62,72.62,0,0,1-26.38,4.6,73.45,73.45,0,0,1-26.57-4.6,59.28,59.28,0,0,1-20.62-13.13A58.11,58.11,0,0,1,931,275.7a75.48,75.48,0,0,1-4.72-27.43A74.15,74.15,0,0,1,931,221.09a57.75,57.75,0,0,1,13.38-20.55,59,59,0,0,1,20.62-13A74.38,74.38,0,0,1,991.56,183Zm0,103q13.13,0,19.33-9.27t6.2-28.16q0-18.9-6.2-28.1t-19.33-9.2q-13.5,0-19.76,9.2t-6.26,28.1q0,18.9,6.26,28.16T991.56,285.95Z"/><path class="cls-1" d="M1112.8,185V265.7q0,9.45,4.29,14.6t12.64,5.15a27.12,27.12,0,0,0,11.72-2.58,43.69,43.69,0,0,0,10.61-7.24V185h38V312.21h-23.56q-7.12,0-9.33-6.38l-2.33-7.36a73.4,73.4,0,0,1-7.61,6.44,46.59,46.59,0,0,1-8.41,4.91,50.33,50.33,0,0,1-9.63,3.19,51.23,51.23,0,0,1-11.29,1.17,44.57,44.57,0,0,1-18.47-3.62,38,38,0,0,1-13.56-10.12,44.17,44.17,0,0,1-8.34-15.34,63.4,63.4,0,0,1-2.82-19.39V185Z"/><path class="cls-1" d="M1308.9,312.21a10.49,10.49,0,0,1-6-1.6,8.5,8.5,0,0,1-3.37-4.79l-2.94-9.69a74.88,74.88,0,0,1-8,7.36,50.19,50.19,0,0,1-9,5.71,47.7,47.7,0,0,1-10.43,3.68,53.7,53.7,0,0,1-12.09,1.29,39.19,39.19,0,0,1-18.41-4.42A42.4,42.4,0,0,1,1224.1,297a64.37,64.37,0,0,1-9.63-20.43A99.25,99.25,0,0,1,1211,249a85.9,85.9,0,0,1,3.93-26.45A64.83,64.83,0,0,1,1226,201.46a51.59,51.59,0,0,1,17.24-13.93,49,49,0,0,1,22.21-5,42.67,42.67,0,0,1,16.63,2.88,48.08,48.08,0,0,1,12.33,7.55V128.51h38v183.7ZM1270.36,285a32.86,32.86,0,0,0,7.55-.8,26.55,26.55,0,0,0,6.2-2.27,27.06,27.06,0,0,0,5.34-3.68,46.41,46.41,0,0,0,5-5.15v-54a25.18,25.18,0,0,0-9.39-6.69,29.13,29.13,0,0,0-10.49-1.9,22.41,22.41,0,0,0-9.69,2.09,19.75,19.75,0,0,0-7.67,6.69,35.62,35.62,0,0,0-5.09,12,74.33,74.33,0,0,0-1.84,17.79,82.43,82.43,0,0,0,1.47,16.93,34.82,34.82,0,0,0,4.11,11.11,16,16,0,0,0,6.32,6.08A18.13,18.13,0,0,0,1270.36,285Z"/><path class="cls-1" d="M1482,265.95a8.34,8.34,0,0,1,2.95.55,8,8,0,0,1,2.82,1.9l16.44,17.3A68.25,68.25,0,0,1,1477.2,307q-16.26,7.18-38.47,7.18-20.37,0-36.51-6.93a79,79,0,0,1-27.37-19.14,84.28,84.28,0,0,1-17.24-29,106.93,106.93,0,0,1-6-36.38,95.9,95.9,0,0,1,6.87-36.75,85.71,85.71,0,0,1,19.21-28.9,86.61,86.61,0,0,1,29.51-18.9,102.89,102.89,0,0,1,37.92-6.75,96.67,96.67,0,0,1,19,1.78,92.72,92.72,0,0,1,16.63,4.91,78.36,78.36,0,0,1,14.24,7.49,68.81,68.81,0,0,1,11.54,9.63l-14,18.78a17.79,17.79,0,0,1-3.19,3.13,8.3,8.3,0,0,1-5.15,1.41,9.19,9.19,0,0,1-4.17-1,45.88,45.88,0,0,1-4.17-2.39l-4.85-3.07a37.36,37.36,0,0,0-6.26-3.07,52.07,52.07,0,0,0-8.47-2.39,57.88,57.88,0,0,0-11.35-1,51.9,51.9,0,0,0-20.62,4,45.19,45.19,0,0,0-16,11.41,52.91,52.91,0,0,0-10.43,18,70.52,70.52,0,0,0-3.74,23.68,73.6,73.6,0,0,0,3.74,24.42,53.6,53.6,0,0,0,10.19,18,43.18,43.18,0,0,0,15,11.11,44.94,44.94,0,0,0,18.41,3.8,88.15,88.15,0,0,0,10.31-.55,42.49,42.49,0,0,0,8.65-1.9,40.05,40.05,0,0,0,7.61-3.5,50.64,50.64,0,0,0,7.3-5.34,14.6,14.6,0,0,1,3.19-2A8.36,8.36,0,0,1,1482,265.95Z"/><path class="cls-1" d="M1579.85,183a73.54,73.54,0,0,1,26.38,4.54,57.9,57.9,0,0,1,20.43,13,58.63,58.63,0,0,1,13.25,20.55,74.19,74.19,0,0,1,4.72,27.18,75.52,75.52,0,0,1-4.72,27.43,59,59,0,0,1-13.25,20.74,58.14,58.14,0,0,1-20.43,13.13,72.62,72.62,0,0,1-26.38,4.6,73.45,73.45,0,0,1-26.57-4.6,59.27,59.27,0,0,1-20.62-13.13,58.11,58.11,0,0,1-13.38-20.74,75.48,75.48,0,0,1-4.72-27.43,74.15,74.15,0,0,1,4.72-27.18,57.75,57.75,0,0,1,13.38-20.55,59,59,0,0,1,20.62-13A74.38,74.38,0,0,1,1579.85,183Zm0,103q13.13,0,19.33-9.27t6.2-28.16q0-18.9-6.2-28.1t-19.33-9.2q-13.5,0-19.76,9.2t-6.26,28.1q0,18.9,6.26,28.16T1579.85,285.95Z"/><path class="cls-1" d="M1665.5,312.21V185h22.58a19.32,19.32,0,0,1,4.72.49A8.32,8.32,0,0,1,1696,187a6.56,6.56,0,0,1,2,2.76,25.11,25.11,0,0,1,1.17,4.17l2.09,11.9a62.35,62.35,0,0,1,15.71-17.06,31.91,31.91,0,0,1,19-6.26q8.71,0,14,4.17l-4.91,28a5.46,5.46,0,0,1-2,3.62,6.66,6.66,0,0,1-3.93,1,26,26,0,0,1-4.91-.55,38.06,38.06,0,0,0-7.12-.55q-15,0-23.56,16v78Z"/><path class="cls-1" d="M1856.2,312.21a10.49,10.49,0,0,1-6-1.6,8.5,8.5,0,0,1-3.37-4.79l-2.95-9.69a74.88,74.88,0,0,1-8,7.36,50.15,50.15,0,0,1-9,5.71,47.68,47.68,0,0,1-10.43,3.68,53.69,53.69,0,0,1-12.09,1.29,39.2,39.2,0,0,1-18.41-4.42A42.4,42.4,0,0,1,1771.4,297a64.35,64.35,0,0,1-9.63-20.43,99.21,99.21,0,0,1-3.5-27.55,85.9,85.9,0,0,1,3.93-26.45,64.83,64.83,0,0,1,11.11-21.11,51.58,51.58,0,0,1,17.24-13.93,49,49,0,0,1,22.21-5,42.67,42.67,0,0,1,16.63,2.88,48.06,48.06,0,0,1,12.33,7.55V128.51h38v183.7ZM1817.66,285a32.86,32.86,0,0,0,7.55-.8,26.55,26.55,0,0,0,6.2-2.27,27.06,27.06,0,0,0,5.34-3.68,46.4,46.4,0,0,0,5-5.15v-54a25.17,25.17,0,0,0-9.39-6.69,29.13,29.13,0,0,0-10.49-1.9,22.41,22.41,0,0,0-9.69,2.09,19.76,19.76,0,0,0-7.67,6.69,35.64,35.64,0,0,0-5.09,12,74.38,74.38,0,0,0-1.84,17.79,82.44,82.44,0,0,0,1.47,16.93,34.86,34.86,0,0,0,4.11,11.11,16,16,0,0,0,6.32,6.08A18.13,18.13,0,0,0,1817.66,285Z"/></g></g></g></g></g></svg>